<svg width="40" height="40" viewBox="0 0 40 40" fill="none" xmlns="http://www.w3.org/2000/svg">
<path d="M39.9741 38.965L38.9741 34.965C38.4996 33.0245 37.0612 31.464 35.1657 30.8334L27.8324 28.39C26.044 27.645 25.2257 24.765 25.049 23.6716C26.4117 22.5385 27.2885 20.9263 27.499 19.1666C27.4689 18.8661 27.5399 18.5641 27.7006 18.3083C27.9605 18.2432 28.1732 18.0571 28.2723 17.8083C28.7521 16.6464 29.0533 15.4186 29.1656 14.1666C29.1659 14.0986 29.1575 14.0309 29.1406 13.965C29.0213 13.4785 28.7353 13.0492 28.3323 12.7516V8.33328C28.3323 5.64828 27.5123 4.54664 26.6489 3.90828C26.4841 2.615 25.0991 0 19.9991 0C15.4743 0.182187 11.8479 3.80859 11.6657 8.33336V12.7517C11.2628 13.0493 10.9767 13.4786 10.8574 13.9651C10.8405 14.0309 10.8321 14.0988 10.8324 14.1667C10.9446 15.4193 11.2457 16.6477 11.7257 17.8101C11.7979 18.0456 11.9872 18.2268 12.2257 18.2884C12.3191 18.3351 12.4941 18.5768 12.4941 19.1668C12.7059 20.9315 13.5878 22.5473 14.9574 23.6802C14.7824 24.7718 13.9691 27.6502 12.2308 28.3768L4.83244 30.8334C2.93846 31.464 1.50096 33.023 1.0258 34.9618L0.0258021 38.9618C-0.087401 39.4079 0.182443 39.8613 0.628537 39.9745C0.695177 39.9915 0.763693 40.0001 0.832443 40.0002H39.1658C39.626 40 39.999 39.6268 39.9989 39.1666C39.9988 39.0985 39.9905 39.0309 39.9741 38.965Z" fill="#7289DA"/>
</svg>