<svg width="25" height="25" viewBox="0 0 25 25" fill="none" xmlns="http://www.w3.org/2000/svg">
<path d="M18.3463 16.1377C19.5766 14.4577 20.3124 12.3941 20.3124 10.1571C20.3124 4.55716 15.7561 0.00088501 10.1562 0.00088501C4.55623 0.00088501 0 4.55716 0 10.1571C0 15.7571 4.55628 20.3133 10.1562 20.3133C12.3933 20.3133 14.457 19.5774 16.137 18.3472L22.7905 25.0007L25 22.7913C25 22.7912 18.3463 16.1377 18.3463 16.1377ZM10.1562 17.1883C6.27897 17.1883 3.12501 14.0344 3.12501 10.1571C3.12501 6.27986 6.27897 3.1259 10.1562 3.1259C14.0335 3.1259 17.1874 6.27986 17.1874 10.1571C17.1874 14.0344 14.0334 17.1883 10.1562 17.1883Z" fill="white"/>
</svg>